HIERARCHY
ROOT Hips
{
	OFFSET 0.000000 0.000000 0.000000
	CHANNELS 6 Xposition Yposition Zposition Zrotation Yrotation Xrotation 
	JOINT LowerBack
	{
		OFFSET 0.000000 0.000000 0.000000
		CHANNELS 3 Zrotation Yrotation Xrotation
		JOINT Spine
		{
			OFFSET 0.028270 2.035590 -0.193380
			CHANNELS 3 Zrotation Yrotation Xrotation
			JOINT Spine1
			{
				OFFSET 0.056720 2.048850 -0.042750
				CHANNELS 3 Zrotation Yrotation Xrotation
				JOINT Neck
				{
					OFFSET 0.000000 0.000000 0.000000
					CHANNELS 3 Zrotation Yrotation Xrotation
					JOINT Neck1
					{
						OFFSET -0.054170 1.746240 0.172020
						CHANNELS 3 Zrotation Yrotation Xrotation
						JOINT Head
						{
							OFFSET 0.104070 1.761360 -0.123970
							CHANNELS 3 Zrotation Yrotation Xrotation
							End Site
							{
								OFFSET 0.000000 0.000000 0.000000
							}
						}
					}
				}
				JOINT LeftShoulder
				{
					OFFSET 0.000000 0.000000 0.000000
					CHANNELS 3 Zrotation Yrotation Xrotation
					JOINT LeftArm
					{
						OFFSET 3.362410 1.200890 -0.311210
						CHANNELS 3 Zrotation Yrotation Xrotation
						JOINT LeftForeArm
						{
							OFFSET 4.983000 -0.000000 -0.000000
							CHANNELS 3 Zrotation Yrotation Xrotation
							JOINT LeftHand
							{
								OFFSET 3.483560 -0.000000 -0.000000
								CHANNELS 3 Zrotation Yrotation Xrotation
								JOINT LeftFingerBase
								{
									OFFSET 0.000000 0.000000 0.000000
									CHANNELS 3 Zrotation Yrotation Xrotation
									JOINT LeftHandIndex1
									{
										OFFSET 0.715260 -0.000000 -0.000000
										CHANNELS 3 Zrotation Yrotation Xrotation
										End Site
										{
											OFFSET 0.000000 0.000000 0.000000
										}
									}
								}
								JOINT LThumb
								{
									OFFSET 0.000000 0.000000 0.000000
									CHANNELS 3 Zrotation Yrotation Xrotation
									End Site
									{
										OFFSET 0.000000 0.000000 0.000000
									}
								}
							}
						}
					}
				}
				JOINT RightShoulder
				{
					OFFSET 0.000000 0.000000 0.000000
					CHANNELS 3 Zrotation Yrotation Xrotation
					JOINT RightArm
					{
						OFFSET -3.136600 1.374050 -0.404650
						CHANNELS 3 Zrotation Yrotation Xrotation
						JOINT RightForeArm
						{
							OFFSET -5.241900 -0.000000 -0.000000
							CHANNELS 3 Zrotation Yrotation Xrotation
							JOINT RightHand
							{
								OFFSET -3.444170 -0.000000 -0.000000
								CHANNELS 3 Zrotation Yrotation Xrotation
								JOINT RightFingerBase
								{
									OFFSET 0.000000 0.000000 0.000000
									CHANNELS 3 Zrotation Yrotation Xrotation
									JOINT RightHandIndex1
									{
										OFFSET -0.622530 -0.000000 -0.000000
										CHANNELS 3 Zrotation Yrotation Xrotation
										End Site
										{
											OFFSET 0.000000 0.000000 0.000000
										}
									}
								}
								JOINT RThumb
								{
									OFFSET 0.000000 0.000000 0.000000
									CHANNELS 3 Zrotation Yrotation Xrotation
									End Site
									{
										OFFSET 0.000000 0.000000 0.000000
									}
								}
							}
						}
					}
				}
			}
		}
	}
}
}
MOTION
Frames: 16
Frame Time: 0.008333
1.678521 17.793145 -1.107291 -170.494333 77.968866 -155.628772 1.354769 -2.670637 -5.335514 -0.182859 -2.893144 -3.800127 -5.363313 -2.922580 0.309643 7.019108 -8.069512 -6.367219 -2.683929 -0.219745 0.392639 0.000000 0.000000 0.000000 10.439332 7.901129 -1.850213 -51.203880 -20.188464 -11.974018 179.363083 -84.512342 179.707876 28.351049 1.315427 0.185097 -0.466012 0.603939 -0.000000 0.000000 0.000000 0.000000 0.000000 0.000000 0.000000 6.727813 -5.209605 1.032138 75.731301 6.246212 -4.887344 2.202584 36.254015 -0.003196 -4.674121 4.688563 -0.201515 0.101665 -0.160898 -0.000000 0.000000 0.000000 0.000000 0.000000 0.000000 0.000000 
1.920510 17.912977 -1.090964 -169.479860 77.336834 -154.636688 1.798985 -2.780024 -5.622801 -0.135090 -3.050326 -3.846389 -5.573850 -3.071827 0.367332 7.284247 -8.173460 -6.387496 -2.852737 -0.233196 0.394153 0.000000 0.000000 0.000000 11.265072 7.705464 -2.136932 -48.656878 -21.463312 -14.068003 179.163311 -82.449443 179.690396 28.919117 1.144379 0.136873 -0.478593 0.631551 -0.000000 0.000000 0.000000 0.000000 0.000000 0.000000 0.000000 7.729416 -5.642205 1.182389 76.791752 4.490595 -8.605546 2.333261 32.890188 -0.003724 -5.671200 5.165430 -0.267669 0.106549 -0.150072 -0.000000 0.000000 0.000000 0.000000 0.000000 0.000000 0.000000 
2.162082 18.019528 -1.072801 -168.895654 76.721181 -154.053262 2.150787 -2.896180 -5.911890 -0.103499 -3.206842 -3.890926 -5.769375 -3.220258 0.433298 7.560936 -8.373245 -6.442242 -3.003647 -0.245086 0.386339 0.000000 0.000000 0.000000 12.069754 7.535350 -2.412041 -45.984282 -22.656871 -16.361813 178.938644 -80.584290 179.673559 29.485834 0.925301 0.074019 -0.490312 0.657880 -0.000000 0.000000 0.000000 0.000000 0.000000 0.000000 0.000000 8.694541 -6.165087 1.320043 77.673122 2.741517 -12.320842 2.406111 30.022317 -0.004915 -6.981571 5.561489 -0.353027 0.111305 -0.140802 -0.000000 0.000000 0.000000 0.000000 0.000000 0.000000 0.000000 
2.403026 18.111966 -1.052785 -168.646202 76.137499 -153.783705 2.413864 -3.021602 -6.199295 -0.085905 -3.365580 -3.931550 -5.944172 -3.370993 0.512954 7.842002 -8.677810 -6.540814 -3.131769 -0.254922 0.366611 0.000000 0.000000 0.000000 12.848216 7.410790 -2.676071 -43.203271 -23.747129 -18.851728 178.696245 -78.909930 179.657645 30.026778 0.648589 -0.006871 -0.500738 0.683158 -0.000000 0.000000 0.000000 0.000000 0.000000 0.000000 0.000000 9.599251 -6.781359 1.446175 78.410568 1.019701 -15.853946 2.435307 27.607486 -0.006464 -8.503292 5.848355 -0.450489 0.115788 -0.132361 -0.000000 0.000000 0.000000 0.000000 0.000000 0.000000 0.000000 
2.643150 18.189891 -1.031206 -168.635240 75.598037 -153.734755 2.599547 -3.158344 -6.481246 -0.078814 -3.529590 -3.966516 -6.093751 -3.527342 0.609703 8.120106 -9.085593 -6.688098 -3.233836 -0.262364 0.333623 0.000000 0.000000 0.000000 13.593957 7.347175 -2.927725 -40.338472 -24.702784 -21.523390 178.443666 -77.416298 179.642899 30.525765 0.312548 -0.107000 -0.509631 0.707410 -0.000000 0.000000 0.000000 0.000000 0.000000 0.000000 0.000000 10.424148 -7.485135 1.561250 79.032184 -0.651108 -19.094020 2.438080 25.575815 -0.008088 -10.106786 5.996554 -0.547552 0.119897 -0.124297 -0.000000 0.000000 0.000000 0.000000 0.000000 0.000000 0.000000 
2.882291 18.253291 -1.008404 -168.784534 75.113442 -153.833142 2.720907 -3.307805 -6.753429 -0.078574 -3.701380 -3.993954 -6.214648 -3.692129 0.727083 8.389274 -9.596443 -6.887412 -3.307761 -0.267151 0.286455 0.000000 0.000000 0.000000 14.298998 7.357758 -3.164895 -37.421131 -25.490124 -24.349036 178.188377 -76.088266 179.629500 30.978042 -0.075726 -0.224564 -0.517056 0.730411 -0.000000 0.000000 0.000000 0.000000 0.000000 0.000000 0.000000 11.156620 -8.274402 1.664605 79.551182 -2.235725 -21.980020 2.431381 23.834368 -0.009547 -11.658274 5.985653 -0.629612 0.123628 -0.116413 -0.000000 0.000000 0.000000 0.000000 0.000000 0.000000 0.000000 
3.120291 18.302545 -0.984938 -169.010435 74.693752 -154.001074 2.797847 -3.469012 -7.012830 -0.080852 -3.881641 -4.013944 -6.306213 -3.866397 0.862460 8.644070 -10.187801 -7.132817 -3.354465 -0.269341 0.226691 0.000000 0.000000 0.000000 14.956414 7.440383 -3.381620 -34.489187 -26.062523 -27.288375 177.938054 -74.904112 179.617556 31.390085 -0.499976 -0.354961 -0.523496 0.751684 -0.000000 0.000000 0.000000 0.000000 0.000000 0.000000 0.000000 11.792924 -9.123811 1.755758 79.969414 -3.724162 -24.514401 2.428234 22.310221 -0.010709 -13.031372 5.800809 -0.681569 0.126982 -0.108711 -0.000000 0.000000 0.000000 0.000000 0.000000 0.000000 0.000000 
3.357107 18.338231 -0.961363 -169.235950 74.347460 -154.164433 2.852234 -3.638894 -7.259492 -0.081167 -4.069205 -4.027202 -6.369215 -4.049305 1.013618 8.879910 -10.839727 -7.417226 -3.375906 -0.269078 0.156218 0.000000 0.000000 0.000000 15.560589 7.590199 -3.571664 -31.590149 -26.380468 -30.288008 177.699287 -73.837094 179.607085 31.777917 -0.937153 -0.491679 -0.529718 0.770621 -0.000000 0.000000 0.000000 0.000000 0.000000 0.000000 0.000000 12.333962 -10.012075 1.833397 80.280646 -5.105660 -26.716570 2.438184 20.935498 -0.011533 -14.130583 5.441927 -0.693420 0.130061 -0.101257 -0.000000 0.000000 0.000000 0.000000 0.000000 0.000000 0.000000 
3.592606 18.360800 -0.937540 -169.498580 74.078921 -154.369846 2.874482 -3.818617 -7.483536 -0.081523 -4.264348 -4.032114 -6.404980 -4.241679 1.177928 9.098287 -11.536897 -7.733060 -3.374351 -0.266525 0.076942 0.000000 0.000000 0.000000 16.119101 7.796620 -3.730472 -28.777037 -26.418078 -33.288033 177.476992 -72.863927 179.598030 32.160176 -1.359522 -0.626413 -0.536510 0.786587 -0.000000 0.000000 0.000000 0.000000 0.000000 0.000000 0.000000 12.790572 -10.925571 1.895798 80.477962 -6.374758 -28.601081 2.465897 19.660738 -0.012058 -14.902473 4.915372 -0.660967 0.133000 -0.094069 -0.000000 0.000000 0.000000 0.000000 0.000000 0.000000 0.000000 
3.826640 18.370868 -0.914094 -169.706429 73.891635 -154.523578 2.895014 -4.000528 -7.691136 -0.076598 -4.462098 -4.032001 -6.417805 -4.438630 1.348263 9.293397 -12.240715 -8.065786 -3.354734 -0.262176 -0.007234 0.000000 0.000000 0.000000 16.631730 8.041972 -3.850235 -26.108207 -26.153336 -36.224102 177.274990 -71.955321 179.590304 32.555212 -1.738465 -0.750950 -0.544754 0.799037 -0.000000 0.000000 0.000000 0.000000 0.000000 0.000000 0.000000 13.167894 -11.822764 1.942551 80.560170 -7.555008 -30.216269 2.513859 18.475175 -0.012368 -15.318683 4.234621 -0.586208 0.135848 -0.087174 -0.000000 0.000000 0.000000 0.000000 0.000000 0.000000 0.000000 
4.058935 18.368813 -0.891183 -169.851453 73.783762 -154.619995 2.920897 -4.180412 -7.879743 -0.065783 -4.658751 -4.027389 -6.411647 -4.636554 1.520211 9.463623 -12.927211 -8.405293 -3.321273 -0.256432 -0.093687 0.000000 0.000000 0.000000 17.104296 8.314503 -3.927245 -23.637696 -25.594515 -39.036335 177.095255 -71.093078 179.583797 32.974527 -2.047176 -0.856781 -0.554983 0.807603 0.000000 0.000000 0.000000 0.000000 0.000000 0.000000 0.000000 13.475591 -12.679620 1.973035 80.531627 -8.662476 -31.585378 2.581909 17.378567 -0.012564 -15.389576 3.417745 -0.476744 0.138637 -0.080511 -0.000000 0.000000 0.000000 0.000000 0.000000 0.000000 0.000000 
4.289273 18.355002 -0.868890 -169.940239 73.751155 -154.667134 2.954970 -4.354048 -8.046719 -0.049504 -4.850166 -4.018669 -6.390727 -4.831267 1.689623 9.607470 -13.574470 -8.742422 -3.278255 -0.249719 -0.180048 0.000000 0.000000 0.000000 17.541819 8.604447 -3.960078 -21.409605 -24.768306 -41.674601 176.938797 -70.267482 179.578413 33.419961 -2.264325 -0.936997 -0.567365 0.812149 0.000000 0.000000 0.000000 0.000000 0.000000 0.000000 0.000000 13.722926 -13.474066 1.987359 80.404878 -9.713951 -32.737232 2.668174 16.382089 -0.012740 -15.147295 2.493423 -0.344276 0.141317 -0.074028 -0.000000 0.000000 0.000000 0.000000 0.000000 0.000000 0.000000 
4.517303 18.329649 -0.846921 -170.046131 73.785718 -154.749815 2.979547 -4.521172 -8.176778 -0.032627 -5.033987 -4.003400 -6.359103 -5.020458 1.852215 9.727225 -14.165455 -9.069941 -3.230074 -0.242456 -0.264536 0.000000 0.000000 0.000000 17.951415 8.906364 -3.950770 -19.450266 -23.723056 -44.102083 176.805970 -69.480071 179.574091 33.882130 -2.374864 -0.985499 -0.581670 0.812746 0.000000 0.000000 0.000000 0.000000 0.000000 0.000000 0.000000 13.926027 -14.189861 1.985846 80.198267 -10.729156 -33.674774 2.768799 15.516217 -0.012979 -14.646192 1.486977 -0.201505 0.143830 -0.067630 -0.000000 0.000000 0.000000 0.000000 0.000000 0.000000 0.000000 
4.742746 18.293067 -0.825384 -170.165307 73.880625 -154.867660 3.000751 -4.677149 -8.265008 -0.015223 -5.205591 -3.981135 -6.321010 -5.199183 2.005854 9.821640 -14.688881 -9.383834 -3.180725 -0.235027 -0.346154 0.000000 0.000000 0.000000 18.327235 9.223304 -3.902729 -17.766944 -22.519839 -46.295802 176.696765 -68.734013 179.570801 34.342287 -2.371927 -0.998082 -0.597398 0.809683 0.000000 0.000000 0.000000 0.000000 0.000000 0.000000 0.000000 14.094048 -14.814793 1.969517 79.931996 -11.718843 -34.410154 2.879855 14.808083 -0.013328 -13.948129 0.436253 -0.061329 0.146114 -0.061304 -0.000000 0.000000 0.000000 0.000000 0.000000 0.000000 0.000000 
4.965390 18.245441 -0.804116 -170.331570 74.030264 -155.060168 3.013072 -4.819701 -8.304629 0.000667 -5.361595 -3.950482 -6.278844 -5.363838 2.150611 9.889327 -15.145720 -9.683193 -3.131924 -0.227593 -0.424717 0.000000 0.000000 0.000000 18.660243 9.559641 -3.821572 -16.346402 -21.220036 -48.245617 176.611227 -68.039912 179.568538 34.775802 -2.260169 -0.974244 -0.613771 0.803462 -0.000000 0.000000 0.000000 0.000000 0.000000 0.000000 0.000000 14.229203 -15.350467 1.940374 79.629388 -12.671036 -34.997474 2.996141 14.252354 -0.013771 -13.114575 -0.592112 0.062549 0.148090 -0.055250 -0.000000 0.000000 0.000000 0.000000 0.000000 0.000000 0.000000 
5.185009 18.187008 -0.783161 -170.539989 74.228132 -155.328054 3.021509 -4.945729 -8.288933 0.014668 -5.498656 -3.910441 -6.236755 -5.510622 2.285743 9.932300 -15.535449 -9.968795 -3.086812 -0.220425 -0.500524 0.000000 0.000000 0.000000 18.935589 9.925489 -3.712577 -15.157513 -19.889198 -49.950083 176.550052 -67.409719 179.567320 35.152477 -2.051403 -0.915784 -0.629946 0.794744 -0.000000 0.000000 0.000000 0.000000 0.000000 0.000000 0.000000 14.344164 -15.794690 1.899923 79.306858 -13.591347 -35.410127 3.112050 13.886513 -0.014321 -12.226155 -1.572387 0.165232 0.149837 -0.049456 -0.000000 0.000000 0.000000 0.000000 0.000000 0.000000 0.000000 
